<?xml version="1.0" encoding="UTF-8"?>
<!DOCTYPE svg PUBLIC "-//W3C//DTD SVG 1.1//EN" "http://www.w3.org/Graphics/SVG/1.1/DTD/svg11.dtd">
<svg xmlns="http://www.w3.org/2000/svg" version="1.1" width="1279px" height="1279px" style="shape-rendering:geometricPrecision; text-rendering:geometricPrecision; image-rendering:optimizeQuality; fill-rule:evenodd; clip-rule:evenodd" xmlns:xlink="http://www.w3.org/1999/xlink">
<g><path style="opacity:1" fill="#979797" d="M 608.5,-0.5 C 628.5,-0.5 648.5,-0.5 668.5,-0.5C 642.999,0.383596 617.333,1.05026 591.5,1.5C 597.167,0.833333 602.833,0.166667 608.5,-0.5 Z"/></g>
<g><path style="opacity:1" fill="#222222" d="M 668.5,-0.5 C 668.833,-0.5 669.167,-0.5 669.5,-0.5C 675.167,0.166667 680.833,0.833333 686.5,1.5C 699.849,3.18872 713.349,4.85538 727,6.5C 728.707,6.49152 730.207,6.15818 731.5,5.5C 732.167,5.5 732.5,5.83333 732.5,6.5C 749.653,10.1965 766.986,13.5298 784.5,16.5C 784.833,16.5 785.167,16.5 785.5,16.5C 787.838,18.0395 790.505,18.7062 793.5,18.5C 796.59,21.0541 800.256,22.0541 804.5,21.5C 806.099,21.2322 807.432,21.5655 808.5,22.5C 810.515,23.9238 812.848,24.5905 815.5,24.5C 818.505,26.2766 821.838,27.2766 825.5,27.5C 840.579,33.4159 855.912,38.7492 871.5,43.5C 872.995,45.345 874.662,45.6783 876.5,44.5C 878.368,45.2632 880.035,46.2632 881.5,47.5C 882.78,48.9313 884.447,49.5979 886.5,49.5C 898.417,55.9566 910.75,61.6232 923.5,66.5C 927.151,67.6589 930.485,69.3256 933.5,71.5C 936.678,74.2583 940.345,76.2583 944.5,77.5C 947.008,79.9236 950.008,81.5903 953.5,82.5C 954.492,82.3284 955.158,82.6618 955.5,83.5C 956.659,85.2503 958.326,86.2503 960.5,86.5C 961.492,86.3284 962.158,86.6618 962.5,87.5C 962.973,88.9063 963.973,89.573 965.5,89.5C 966.659,91.2503 968.326,92.2503 970.5,92.5C 970.351,93.552 970.517,94.552 971,95.5C 972.414,94.5868 973.914,94.5868 975.5,95.5C 976.492,95.3284 977.158,95.6618 977.5,96.5C 978.802,98.8218 980.802,100.155 983.5,100.5C 983.973,101.906 984.973,102.573 986.5,102.5C 986.973,103.906 987.973,104.573 989.5,104.5C 991.951,107.277 994.951,109.277 998.5,110.5C 998.973,111.906 999.973,112.573 1001.5,112.5C 1003.3,114.9 1005.63,116.567 1008.5,117.5C 1008.97,118.906 1009.97,119.573 1011.5,119.5C 1011.97,120.906 1012.97,121.573 1014.5,121.5C 1015.17,121.5 1015.5,121.833 1015.5,122.5C 1015.97,123.906 1016.97,124.573 1018.5,124.5C 1019.49,124.328 1020.16,124.662 1020.5,125.5C 1020.06,125.435 1019.73,125.601 1019.5,126C 1021.7,128.594 1024.37,130.428 1027.5,131.5C 1028.26,133.262 1029.6,134.262 1031.5,134.5C 1032.58,136.587 1034.25,137.92 1036.5,138.5C 1037.58,140.587 1039.25,141.92 1041.5,142.5C 1042.58,144.587 1044.25,145.92 1046.5,146.5C 1048.19,149.19 1050.53,151.19 1053.5,152.5C 1054.91,154.914 1056.91,156.581 1059.5,157.5C 1059.41,158.496 1059.75,159.329 1060.5,160C 1063.4,162.41 1066.4,164.577 1069.5,166.5C 1070.5,166.833 1071.17,167.5 1071.5,168.5C 1076.22,174.227 1081.56,179.227 1087.5,183.5C 1094.11,191.779 1101.44,199.445 1109.5,206.5C 1111.77,210.436 1114.77,213.769 1118.5,216.5C 1120.09,219.764 1122.43,222.431 1125.5,224.5C 1126.42,227.089 1128.09,229.089 1130.5,230.5C 1131.42,233.089 1133.09,235.089 1135.5,236.5C 1136.08,238.749 1137.41,240.415 1139.5,241.5C 1141.11,245.051 1143.44,248.051 1146.5,250.5C 1146.74,252.404 1147.74,253.738 1149.5,254.5C 1149.74,256.404 1150.74,257.738 1152.5,258.5C 1152.74,260.404 1153.74,261.738 1155.5,262.5C 1155.74,264.404 1156.74,265.738 1158.5,266.5C 1158.43,268.027 1159.09,269.027 1160.5,269.5C 1160.74,271.404 1161.74,272.738 1163.5,273.5C 1163.43,275.027 1164.09,276.027 1165.5,276.5C 1165.43,278.027 1166.09,279.027 1167.5,279.5C 1167.43,281.027 1168.09,282.027 1169.5,282.5C 1169.43,284.027 1170.09,285.027 1171.5,285.5C 1171.43,287.027 1172.09,288.027 1173.5,288.5C 1173.43,290.027 1174.09,291.027 1175.5,291.5C 1175.43,293.027 1176.09,294.027 1177.5,294.5C 1177.75,296.674 1178.75,298.341 1180.5,299.5C 1180.43,301.027 1181.09,302.027 1182.5,302.5C 1182.43,304.027 1183.09,305.027 1184.5,305.5C 1185.34,305.842 1185.67,306.508 1185.5,307.5C 1185.43,309.027 1186.09,310.027 1187.5,310.5C 1188.34,310.842 1188.67,311.508 1188.5,312.5C 1188.43,314.027 1189.09,315.027 1190.5,315.5C 1190.59,318.578 1191.92,320.911 1194.5,322.5C 1195.34,322.842 1195.67,323.508 1195.5,324.5C 1195.75,326.674 1196.75,328.341 1198.5,329.5C 1199.67,330.514 1200.34,331.847 1200.5,333.5C 1202.38,336.921 1203.38,340.588 1203.5,344.5C 1204.5,344.5 1205.5,344.5 1206.5,344.5C 1210.01,350.182 1213.01,356.182 1215.5,362.5C 1215.84,366.836 1217.5,370.503 1220.5,373.5C 1221.34,373.842 1221.67,374.508 1221.5,375.5C 1221.71,378.241 1222.71,380.574 1224.5,382.5C 1226.59,385.088 1227.93,388.088 1228.5,391.5C 1228.4,393.553 1229.07,395.22 1230.5,396.5C 1230.17,399.491 1231.17,401.824 1233.5,403.5C 1233.12,405.698 1233.79,407.365 1235.5,408.5C 1236.14,414.437 1238.14,419.77 1241.5,424.5C 1242.17,424.5 1242.5,424.833 1242.5,425.5C 1241.32,427.338 1241.66,429.005 1243.5,430.5C 1243.13,434.044 1244.13,437.044 1246.5,439.5C 1246.4,443.258 1247.4,446.592 1249.5,449.5C 1249.05,452.01 1249.72,454.01 1251.5,455.5C 1251.32,459.286 1252.32,462.619 1254.5,465.5C 1254.5,465.833 1254.5,466.167 1254.5,466.5C 1254.52,470.534 1255.52,474.201 1257.5,477.5C 1259.43,482.573 1260.77,487.906 1261.5,493.5C 1261.34,496.187 1261.5,498.854 1262,501.5C 1262.38,502.056 1262.88,502.389 1263.5,502.5C 1264.5,513.145 1266.5,523.479 1269.5,533.5C 1270.47,535.607 1270.8,537.941 1270.5,540.5C 1270.33,543.85 1270.5,547.183 1271,550.5C 1271.23,551.737 1271.73,552.737 1272.5,553.5C 1273.17,553.5 1273.5,553.833 1273.5,554.5C 1272.84,555.793 1272.51,557.293 1272.5,559C 1273.04,566.044 1274.04,572.877 1275.5,579.5C 1276.65,590.252 1277.65,600.919 1278.5,611.5C 1278.5,611.833 1278.5,612.167 1278.5,612.5C 1277.6,636.333 1276.93,660.333 1276.5,684.5C 1276.21,698.078 1274.88,711.412 1272.5,724.5C 1270.59,728.754 1270.26,733.088 1271.5,737.5C 1271.17,738.167 1270.83,738.833 1270.5,739.5C 1267.86,746.352 1266.86,753.352 1267.5,760.5C 1266.62,764.288 1265.62,767.954 1264.5,771.5C 1262.12,775.393 1261.12,779.727 1261.5,784.5C 1258.77,789.376 1257.44,794.71 1257.5,800.5C 1257.5,800.833 1257.5,801.167 1257.5,801.5C 1256.29,802.234 1254.96,802.567 1253.5,802.5C 1253.03,808.235 1251.37,813.568 1248.5,818.5C 1247.21,822.586 1247.21,826.919 1248.5,831.5C 1247.18,831.33 1246.01,831.663 1245,832.5C 1244.09,834.659 1243.25,836.825 1242.5,839C 1242.18,840.961 1242.84,842.794 1244.5,844.5C 1242.4,847.797 1241.07,851.463 1240.5,855.5C 1237.96,864.802 1234.62,873.802 1230.5,882.5C 1229.15,881.829 1227.99,881.829 1227,882.5C 1226.73,885.715 1225.39,888.381 1223,890.5C 1222.34,892.108 1222.84,893.275 1224.5,894C 1221.11,896.239 1218.78,899.406 1217.5,903.5C 1218.44,903.489 1219.11,903.989 1219.5,905C 1218.85,906.44 1218.52,907.94 1218.5,909.5C 1203.45,943.302 1185.11,974.969 1163.5,1004.5C 1162.12,1005.71 1160.95,1005.37 1160,1003.5C 1159.68,1005.06 1158.85,1006.23 1157.5,1007C 1158.73,1008.18 1158.73,1009.35 1157.5,1010.5C 1156.03,1009.62 1155.2,1008.29 1155,1006.5C 1154.03,1008.3 1152.86,1009.97 1151.5,1011.5C 1151.83,1012.17 1152.17,1012.83 1152.5,1013.5C 1151.2,1016.43 1150.2,1019.43 1149.5,1022.5C 1147.42,1022.47 1145.58,1023.14 1144,1024.5C 1142.8,1028.19 1140.97,1031.53 1138.5,1034.5C 1138.86,1035.18 1139.2,1035.85 1139.5,1036.5C 1052.44,1145.94 941.105,1219.44 805.5,1257C 760.722,1268.63 715.388,1275.8 669.5,1278.5C 648.833,1278.5 628.167,1278.5 607.5,1278.5C 423.813,1266.24 271.646,1191.24 151,1053.5C 58.9904,943.413 8.4904,816.413 -0.5,672.5C -0.5,650.167 -0.5,627.833 -0.5,605.5C 8.49122,461.586 58.9912,334.586 151,224.5C 160.49,213.184 170.657,202.518 181.5,192.5C 184.886,190.16 187.22,187.493 188.5,184.5C 193.141,180.195 197.807,175.861 202.5,171.5C 205.427,170.243 207.761,168.243 209.5,165.5C 213.1,163.57 216.1,160.903 218.5,157.5C 218.833,156.5 219.5,155.833 220.5,155.5C 223.473,154.19 225.807,152.19 227.5,149.5C 244.028,134.637 261.694,121.303 280.5,109.5C 282.518,108.377 284.518,108.377 286.5,109.5C 287.308,109.192 287.975,108.692 288.5,108C 287.167,107 287.167,106 288.5,105C 289.793,104.51 291.127,104.343 292.5,104.5C 292.5,103.5 292.5,102.5 292.5,101.5C 310.674,89.2406 329.674,78.2406 349.5,68.5C 353.684,68.4081 357.017,66.7414 359.5,63.5C 361.649,62.2638 363.982,61.2638 366.5,60.5C 369.766,60.3706 372.766,59.3706 375.5,57.5C 377.853,58.565 380.186,58.3983 382.5,57C 384.5,56 386.5,55 388.5,54C 389.369,51.3455 391.036,49.5122 393.5,48.5C 395.509,46.9348 397.843,45.9348 400.5,45.5C 403.106,44.8641 405.606,44.8641 408,45.5C 412.138,42.1824 416.638,39.5158 421.5,37.5C 424.916,37.4725 427.916,36.4725 430.5,34.5C 434.915,34.1394 438.915,32.8061 442.5,30.5C 444.214,29.2616 446.214,28.595 448.5,28.5C 455.557,27.4782 462.223,25.4782 468.5,22.5C 473.655,20.5445 478.989,19.2112 484.5,18.5C 486.792,18.2436 488.959,18.5769 491,19.5C 491.5,18.3333 492.333,17.5 493.5,17C 495.833,16.6667 498.167,16.3333 500.5,16C 501.056,15.6174 501.389,15.1174 501.5,14.5C 508.578,14.5511 515.245,13.2178 521.5,10.5C 527.82,10.6004 533.82,9.60042 539.5,7.5C 544.122,7.84394 548.455,7.17727 552.5,5.5C 552.5,4.83333 552.833,4.5 553.5,4.5C 554.793,5.15818 556.293,5.49152 558,5.5C 565.044,4.96306 571.877,3.96306 578.5,2.5C 582.735,1.56404 587.069,1.23071 591.5,1.5C 617.333,1.05026 642.999,0.383596 668.5,-0.5 Z"/></g>
<g><path style="opacity:0.263" fill="#b9b9b9" d="M 686.5,1.5 C 701.553,2.25663 716.553,3.58996 731.5,5.5C 730.207,6.15818 728.707,6.49152 727,6.5C 713.349,4.85538 699.849,3.18872 686.5,1.5 Z"/></g>
<g><path style="opacity:1" fill="#959595" d="M 578.5,2.5 C 571.877,3.96306 565.044,4.96306 558,5.5C 556.293,5.49152 554.793,5.15818 553.5,4.5C 561.821,3.6866 570.154,3.01994 578.5,2.5 Z"/></g>
<g><path style="opacity:1" fill="#828282" d="M 552.5,5.5 C 548.455,7.17727 544.122,7.84394 539.5,7.5C 543.591,6.10452 547.924,5.43786 552.5,5.5 Z"/></g>
<g><path style="opacity:0.733" fill="#a0a0a0" d="M 732.5,6.5 C 750.222,8.44528 767.555,11.7786 784.5,16.5C 766.986,13.5298 749.653,10.1965 732.5,6.5 Z"/></g>
<g><path style="opacity:1" fill="#737373" d="M 539.5,7.5 C 533.82,9.60042 527.82,10.6004 521.5,10.5C 527.233,8.65553 533.233,7.65553 539.5,7.5 Z"/></g>
<g><path style="opacity:1" fill="#686868" d="M 521.5,10.5 C 515.245,13.2178 508.578,14.5511 501.5,14.5C 507.923,12.5487 514.589,11.2154 521.5,10.5 Z"/></g>
<g><path style="opacity:0.957" fill="#6e6e6e" d="M 501.5,14.5 C 501.389,15.1174 501.056,15.6174 500.5,16C 498.167,16.3333 495.833,16.6667 493.5,17C 492.333,17.5 491.5,18.3333 491,19.5C 488.959,18.5769 486.792,18.2436 484.5,18.5C 489.878,16.4207 495.544,15.0873 501.5,14.5 Z"/></g>
<g><path style="opacity:0.431" fill="#b8b8b8" d="M 785.5,16.5 C 788.428,16.5651 791.095,17.2318 793.5,18.5C 790.505,18.7062 787.838,18.0395 785.5,16.5 Z"/></g>
<g><path style="opacity:1" fill="#8f8f8f" d="M 793.5,18.5 C 797.479,18.7424 801.146,19.7424 804.5,21.5C 800.256,22.0541 796.59,21.0541 793.5,18.5 Z"/></g>
<g><path style="opacity:0.02" fill="#cbcbcb" d="M 808.5,22.5 C 811.152,22.4095 813.485,23.0762 815.5,24.5C 812.848,24.5905 810.515,23.9238 808.5,22.5 Z"/></g>
<g><path style="opacity:0.537" fill="#c6c6c6" d="M 815.5,24.5 C 819.162,24.7234 822.495,25.7234 825.5,27.5C 821.838,27.2766 818.505,26.2766 815.5,24.5 Z"/></g>
<g><path style="opacity:1" fill="#7a7a7a" d="M 468.5,22.5 C 462.223,25.4782 455.557,27.4782 448.5,28.5C 454.893,25.9278 461.559,23.9278 468.5,22.5 Z"/></g>
<g><path style="opacity:1" fill="#7b7b7b" d="M 442.5,30.5 C 438.915,32.8061 434.915,34.1394 430.5,34.5C 434.216,32.5947 438.216,31.2613 442.5,30.5 Z"/></g>
<g><path style="opacity:0.976" fill="#828282" d="M 430.5,34.5 C 427.916,36.4725 424.916,37.4725 421.5,37.5C 424.215,35.9281 427.215,34.9281 430.5,34.5 Z"/></g>
<g><path style="opacity:0.922" fill="#9b9b9b" d="M 825.5,27.5 C 841.405,31.467 856.738,36.8003 871.5,43.5C 855.912,38.7492 840.579,33.4159 825.5,27.5 Z"/></g>
<g><path style="opacity:1" fill="#565656" d="M 421.5,37.5 C 416.638,39.5158 412.138,42.1824 408,45.5C 405.606,44.8641 403.106,44.8641 400.5,45.5C 407.124,42.0663 414.124,39.3996 421.5,37.5 Z"/></g>
<g><path style="opacity:0.655" fill="#b4b4b4" d="M 871.5,43.5 C 873.216,43.6287 874.883,43.962 876.5,44.5C 874.662,45.6783 872.995,45.345 871.5,43.5 Z"/></g>
<g><path style="opacity:0.408" fill="#cacaca" d="M 881.5,47.5 C 883.553,47.4021 885.22,48.0687 886.5,49.5C 884.447,49.5979 882.78,48.9313 881.5,47.5 Z"/></g>
<g><path style="opacity:1" fill="#3d3d3d" d="M 393.5,48.5 C 391.036,49.5122 389.369,51.3455 388.5,54C 386.5,55 384.5,56 382.5,57C 380.186,58.3983 377.853,58.565 375.5,57.5C 372.766,59.3706 369.766,60.3706 366.5,60.5C 375.089,55.7084 384.089,51.7084 393.5,48.5 Z"/></g>
<g><path style="opacity:0.608" fill="#aaaaaa" d="M 886.5,49.5 C 899.489,53.8293 911.822,59.4959 923.5,66.5C 910.75,61.6232 898.417,55.9566 886.5,49.5 Z"/></g>
<g><path style="opacity:1" fill="#646464" d="M 359.5,63.5 C 357.017,66.7414 353.684,68.4081 349.5,68.5C 352.515,66.3256 355.849,64.6589 359.5,63.5 Z"/></g>
<g><path style="opacity:0.243" fill="#c1c1c1" d="M 933.5,71.5 C 937.655,72.7417 941.322,74.7417 944.5,77.5C 940.345,76.2583 936.678,74.2583 933.5,71.5 Z"/></g>
<g><path style="opacity:0.647" fill="#b7b7b7" d="M 944.5,77.5 C 947.992,78.4097 950.992,80.0764 953.5,82.5C 950.008,81.5903 947.008,79.9236 944.5,77.5 Z"/></g>
<g><path style="opacity:0.237" fill="#bdbdbd" d="M 955.5,83.5 C 957.674,83.7497 959.341,84.7497 960.5,86.5C 958.326,86.2503 956.659,85.2503 955.5,83.5 Z"/></g>
<g><path style="opacity:0.345" fill="#c1c1c1" d="M 962.5,87.5 C 964.027,87.427 965.027,88.0937 965.5,89.5C 963.973,89.573 962.973,88.9063 962.5,87.5 Z"/></g>
<g><path style="opacity:0.545" fill="#b3b3b3" d="M 965.5,89.5 C 967.674,89.7497 969.341,90.7497 970.5,92.5C 968.326,92.2503 966.659,91.2503 965.5,89.5 Z"/></g>
<g><path style="opacity:1" fill="#7f7f7f" d="M 970.5,92.5 C 972.674,92.7497 974.341,93.7497 975.5,95.5C 973.914,94.5868 972.414,94.5868 971,95.5C 970.517,94.552 970.351,93.552 970.5,92.5 Z"/></g>
<g><path style="opacity:0.031" fill="#c2c2c2" d="M 977.5,96.5 C 979.853,97.3403 981.853,98.6736 983.5,100.5C 980.802,100.155 978.802,98.8218 977.5,96.5 Z"/></g>
<g><path style="opacity:0.059" fill="#cdcdcd" d="M 983.5,100.5 C 985.027,100.427 986.027,101.094 986.5,102.5C 984.973,102.573 983.973,101.906 983.5,100.5 Z"/></g>
<g><path style="opacity:0.082" fill="#c8c8c8" d="M 986.5,102.5 C 988.027,102.427 989.027,103.094 989.5,104.5C 987.973,104.573 986.973,103.906 986.5,102.5 Z"/></g>
<g><path style="opacity:1" fill="#464646" d="M 292.5,101.5 C 292.5,102.5 292.5,103.5 292.5,104.5C 291.127,104.343 289.793,104.51 288.5,105C 287.167,106 287.167,107 288.5,108C 287.975,108.692 287.308,109.192 286.5,109.5C 284.518,108.377 282.518,108.377 280.5,109.5C 284.148,106.34 288.148,103.673 292.5,101.5 Z"/></g>
<g><path style="opacity:0.694" fill="#ababab" d="M 989.5,104.5 C 993.025,105.759 996.025,107.759 998.5,110.5C 994.951,109.277 991.951,107.277 989.5,104.5 Z"/></g>
<g><path style="opacity:0.286" fill="#c1c1c1" d="M 998.5,110.5 C 1000.03,110.427 1001.03,111.094 1001.5,112.5C 999.973,112.573 998.973,111.906 998.5,110.5 Z"/></g>
<g><path style="opacity:0.506" fill="#b7b7b7" d="M 1001.5,112.5 C 1004.37,113.433 1006.7,115.1 1008.5,117.5C 1005.63,116.567 1003.3,114.9 1001.5,112.5 Z"/></g>
<g><path style="opacity:0.075" fill="#cecece" d="M 1008.5,117.5 C 1010.03,117.427 1011.03,118.094 1011.5,119.5C 1009.97,119.573 1008.97,118.906 1008.5,117.5 Z"/></g>
<g><path style="opacity:0.275" fill="#cbcbcb" d="M 1011.5,119.5 C 1013.03,119.427 1014.03,120.094 1014.5,121.5C 1012.97,121.573 1011.97,120.906 1011.5,119.5 Z"/></g>
<g><path style="opacity:0.047" fill="#d1d1d1" d="M 1015.5,122.5 C 1017.03,122.427 1018.03,123.094 1018.5,124.5C 1016.97,124.573 1015.97,123.906 1015.5,122.5 Z"/></g>
<g><path style="opacity:0.863" fill="#aaaaaa" d="M 1020.5,125.5 C 1023.43,126.8 1025.77,128.8 1027.5,131.5C 1024.37,130.428 1021.7,128.594 1019.5,126C 1019.73,125.601 1020.06,125.435 1020.5,125.5 Z"/></g>
<g><path style="opacity:0.039" fill="#c6c6c6" d="M 1027.5,131.5 C 1029.4,131.738 1030.74,132.738 1031.5,134.5C 1029.6,134.262 1028.26,133.262 1027.5,131.5 Z"/></g>
<g><path style="opacity:0.012" fill="#b4b4b4" d="M 1031.5,134.5 C 1033.75,135.08 1035.42,136.413 1036.5,138.5C 1034.25,137.92 1032.58,136.587 1031.5,134.5 Z"/></g>
<g><path style="opacity:0.02" fill="#b8b8b8" d="M 1036.5,138.5 C 1038.75,139.08 1040.42,140.413 1041.5,142.5C 1039.25,141.92 1037.58,140.587 1036.5,138.5 Z"/></g>
<g><path style="opacity:0.012" fill="#b8b8b8" d="M 1041.5,142.5 C 1043.75,143.08 1045.42,144.413 1046.5,146.5C 1044.25,145.92 1042.58,144.587 1041.5,142.5 Z"/></g>
<g><path style="opacity:0.024" fill="#b4b4b4" d="M 1046.5,146.5 C 1049.45,147.781 1051.78,149.781 1053.5,152.5C 1050.53,151.19 1048.19,149.19 1046.5,146.5 Z"/></g>
<g><path style="opacity:0.863" fill="#676767" d="M 227.5,149.5 C 225.807,152.19 223.473,154.19 220.5,155.5C 222.219,152.781 224.553,150.781 227.5,149.5 Z"/></g>
<g><path style="opacity:0.796" fill="#b8b8b8" d="M 1053.5,152.5 C 1056.09,153.419 1058.09,155.086 1059.5,157.5C 1056.91,156.581 1054.91,154.914 1053.5,152.5 Z"/></g>
<g><path style="opacity:0.016" fill="#adadad" d="M 1059.5,157.5 C 1063.46,159.788 1066.79,162.788 1069.5,166.5C 1066.4,164.577 1063.4,162.41 1060.5,160C 1059.75,159.329 1059.41,158.496 1059.5,157.5 Z"/></g>
<g><path style="opacity:0.875" fill="#646464" d="M 218.5,157.5 C 216.1,160.903 213.1,163.57 209.5,165.5C 211.9,162.097 214.9,159.43 218.5,157.5 Z"/></g>
<g><path style="opacity:0.835" fill="#6f6f6f" d="M 209.5,165.5 C 207.761,168.243 205.427,170.243 202.5,171.5C 204.239,168.757 206.573,166.757 209.5,165.5 Z"/></g>
<g><path style="opacity:0.02" fill="#b9b9b9" d="M 1071.5,168.5 C 1077.44,172.773 1082.78,177.773 1087.5,183.5C 1081.56,179.227 1076.22,174.227 1071.5,168.5 Z"/></g>
<g><path style="opacity:0.98" fill="#ababab" d="M 1087.5,183.5 C 1095.56,190.555 1102.89,198.221 1109.5,206.5C 1101.44,199.445 1094.11,191.779 1087.5,183.5 Z"/></g>
<g><path style="opacity:0.616" fill="#666666" d="M 188.5,184.5 C 187.22,187.493 184.886,190.16 181.5,192.5C 183.094,189.236 185.427,186.569 188.5,184.5 Z"/></g>
<g><path style="opacity:0.996" fill="#a3a3a3" d="M 1109.5,206.5 C 1113.23,209.231 1116.23,212.564 1118.5,216.5C 1114.77,213.769 1111.77,210.436 1109.5,206.5 Z"/></g>
<g><path style="opacity:0.996" fill="#9e9e9e" d="M 1118.5,216.5 C 1121.57,218.569 1123.91,221.236 1125.5,224.5C 1122.43,222.431 1120.09,219.764 1118.5,216.5 Z"/></g>
<g><path style="opacity:0.584" fill="#b4b4b4" d="M 1125.5,224.5 C 1127.91,225.911 1129.58,227.911 1130.5,230.5C 1128.09,229.089 1126.42,227.089 1125.5,224.5 Z"/></g>
<g><path style="opacity:0.533" fill="#a9a9a9" d="M 1130.5,230.5 C 1132.91,231.911 1134.58,233.911 1135.5,236.5C 1133.09,235.089 1131.42,233.089 1130.5,230.5 Z"/></g>
<g><path style="opacity:0.882" fill="#a9a9a9" d="M 1135.5,236.5 C 1137.59,237.585 1138.92,239.251 1139.5,241.5C 1137.41,240.415 1136.08,238.749 1135.5,236.5 Z"/></g>
<g><path style="opacity:0.714" fill="#a9a9a9" d="M 1139.5,241.5 C 1142.56,243.949 1144.89,246.949 1146.5,250.5C 1143.44,248.051 1141.11,245.051 1139.5,241.5 Z"/></g>
<g><path style="opacity:0.843" fill="#b0b0b0" d="M 1146.5,250.5 C 1148.26,251.262 1149.26,252.596 1149.5,254.5C 1147.74,253.738 1146.74,252.404 1146.5,250.5 Z"/></g>
<g><path style="opacity:0.855" fill="#ababab" d="M 1149.5,254.5 C 1151.26,255.262 1152.26,256.596 1152.5,258.5C 1150.74,257.738 1149.74,256.404 1149.5,254.5 Z"/></g>
<g><path style="opacity:0.824" fill="#aeaeae" d="M 1152.5,258.5 C 1154.26,259.262 1155.26,260.596 1155.5,262.5C 1153.74,261.738 1152.74,260.404 1152.5,258.5 Z"/></g>
<g><path style="opacity:0.012" fill="#adadad" d="M 1155.5,262.5 C 1157.26,263.262 1158.26,264.596 1158.5,266.5C 1156.74,265.738 1155.74,264.404 1155.5,262.5 Z"/></g>
<g><path style="opacity:0.651" fill="#b9b9b9" d="M 1158.5,266.5 C 1159.91,266.973 1160.57,267.973 1160.5,269.5C 1159.09,269.027 1158.43,268.027 1158.5,266.5 Z"/></g>
<g><path style="opacity:0.749" fill="#a9a9a9" d="M 1160.5,269.5 C 1162.26,270.262 1163.26,271.596 1163.5,273.5C 1161.74,272.738 1160.74,271.404 1160.5,269.5 Z"/></g>
<g><path style="opacity:0.553" fill="#bababa" d="M 1163.5,273.5 C 1164.91,273.973 1165.57,274.973 1165.5,276.5C 1164.09,276.027 1163.43,275.027 1163.5,273.5 Z"/></g>
<g><path style="opacity:0.608" fill="#b4b4b4" d="M 1165.5,276.5 C 1166.91,276.973 1167.57,277.973 1167.5,279.5C 1166.09,279.027 1165.43,278.027 1165.5,276.5 Z"/></g>
<g><path style="opacity:1" fill="#767676" d="M 498.5,280.5 C 474.491,280.357 450.491,280.691 426.5,281.5C 429.305,280.681 432.305,280.181 435.5,280C 456.671,279.171 477.671,279.337 498.5,280.5 Z"/></g>
<g><path style="opacity:1" fill="#fefefe" d="M 498.5,280.5 C 515.836,280.738 533.169,281.072 550.5,281.5C 580.336,282.632 610.336,283.632 640.5,284.5C 685.33,285.499 730.33,285.832 775.5,285.5C 775.63,373.002 776.296,460.336 777.5,547.5C 778.978,547.762 780.311,547.429 781.5,546.5C 795.468,523.368 809.635,500.368 824,477.5C 868.42,413.263 912.587,348.93 956.5,284.5C 1010.51,283.838 1064.18,284.504 1117.5,286.5C 1052.51,369.505 987.839,452.838 923.5,536.5C 992.107,649.389 1060.44,762.389 1128.5,875.5C 1077.34,876.499 1026,876.832 974.5,876.5C 940.626,815.424 906.46,754.424 872,693.5C 857.959,669.251 843.793,645.084 829.5,621C 828.551,620.383 827.718,620.549 827,621.5C 810.999,641.664 794.833,661.664 778.5,681.5C 777.501,748.998 777.167,816.665 777.5,884.5C 856.167,884.5 934.833,884.5 1013.5,884.5C 1013.5,920.833 1013.5,957.167 1013.5,993.5C 891.167,993.5 768.833,993.5 646.5,993.5C 646.833,943.496 646.5,893.496 645.5,843.5C 644.893,843.624 644.56,843.957 644.5,844.5C 643.833,844.5 643.5,844.833 643.5,845.5C 603.732,865.699 562.066,880.865 518.5,891C 514.49,891.501 510.49,892.001 506.5,892.5C 497.693,893.505 489.026,894.505 480.5,895.5C 466.5,896.833 452.5,896.833 438.5,895.5C 434.081,894.028 429.414,893.362 424.5,893.5C 323.778,879.166 245.611,829.833 190,745.5C 176.689,723.062 166.189,699.395 158.5,674.5C 158.59,671.848 157.924,669.515 156.5,667.5C 144.039,618.306 143.372,568.973 154.5,519.5C 156.074,516.093 157.074,512.427 157.5,508.5C 159.61,504.498 160.943,500.165 161.5,495.5C 193.155,408.337 251.155,345.17 335.5,306C 358.42,296.304 382.087,289.137 406.5,284.5C 413.435,284.415 420.101,283.415 426.5,281.5C 450.491,280.691 474.491,280.357 498.5,280.5 Z"/></g>
<g><path style="opacity:0.659" fill="#b5b5b5" d="M 1167.5,279.5 C 1168.91,279.973 1169.57,280.973 1169.5,282.5C 1168.09,282.027 1167.43,281.027 1167.5,279.5 Z"/></g>
<g><path style="opacity:1" fill="#9a9a9a" d="M 426.5,281.5 C 420.101,283.415 413.435,284.415 406.5,284.5C 412.926,282.754 419.593,281.754 426.5,281.5 Z"/></g>
<g><path style="opacity:1" fill="#898989" d="M 550.5,281.5 C 625.992,282.815 701.325,283.815 776.5,284.5C 731.167,284.5 685.833,284.5 640.5,284.5C 610.336,283.632 580.336,282.632 550.5,281.5 Z"/></g>
<g><path style="opacity:1" fill="#808080" d="M 956.5,284.5 C 1010.33,283.501 1064.33,283.168 1118.5,283.5C 1118.74,284.791 1118.4,285.791 1117.5,286.5C 1064.18,284.504 1010.51,283.838 956.5,284.5 Z"/></g>
<g><path style="opacity:0.659" fill="#b2b2b2" d="M 1169.5,282.5 C 1170.91,282.973 1171.57,283.973 1171.5,285.5C 1170.09,285.027 1169.43,284.027 1169.5,282.5 Z"/></g>
<g><path style="opacity:1" fill="#c7c7c7" d="M 640.5,284.5 C 685.833,284.5 731.167,284.5 776.5,284.5C 777.499,371.998 777.833,459.665 777.5,547.5C 776.296,460.336 775.63,373.002 775.5,285.5C 730.33,285.832 685.33,285.499 640.5,284.5 Z"/></g>
<g><path style="opacity:0.655" fill="#b2b2b2" d="M 1171.5,285.5 C 1172.91,285.973 1173.57,286.973 1173.5,288.5C 1172.09,288.027 1171.43,287.027 1171.5,285.5 Z"/></g>
<g><path style="opacity:0.608" fill="#bebebe" d="M 1173.5,288.5 C 1174.91,288.973 1175.57,289.973 1175.5,291.5C 1174.09,291.027 1173.43,290.027 1173.5,288.5 Z"/></g>
<g><path style="opacity:0.557" fill="#c1c1c1" d="M 1175.5,291.5 C 1176.91,291.973 1177.57,292.973 1177.5,294.5C 1176.09,294.027 1175.43,293.027 1175.5,291.5 Z"/></g>
<g><path style="opacity:0.816" fill="#bababa" d="M 1177.5,294.5 C 1179.25,295.659 1180.25,297.326 1180.5,299.5C 1178.75,298.341 1177.75,296.674 1177.5,294.5 Z"/></g>
<g><path style="opacity:0.608" fill="#b8b8b8" d="M 1180.5,299.5 C 1181.91,299.973 1182.57,300.973 1182.5,302.5C 1181.09,302.027 1180.43,301.027 1180.5,299.5 Z"/></g>
<g><path style="opacity:0.455" fill="#bdbdbd" d="M 1182.5,302.5 C 1183.91,302.973 1184.57,303.973 1184.5,305.5C 1183.09,305.027 1182.43,304.027 1182.5,302.5 Z"/></g>
<g><path style="opacity:0.498" fill="#b7b7b7" d="M 1185.5,307.5 C 1186.91,307.973 1187.57,308.973 1187.5,310.5C 1186.09,310.027 1185.43,309.027 1185.5,307.5 Z"/></g>
<g><path style="opacity:0.482" fill="#b6b6b6" d="M 1188.5,312.5 C 1189.91,312.973 1190.57,313.973 1190.5,315.5C 1189.09,315.027 1188.43,314.027 1188.5,312.5 Z"/></g>
<g><path style="opacity:0.8" fill="#939393" d="M 1190.5,315.5 C 1192.59,317.336 1193.92,319.669 1194.5,322.5C 1191.92,320.911 1190.59,318.578 1190.5,315.5 Z"/></g>
<g><path style="opacity:0.804" fill="#afafaf" d="M 1195.5,324.5 C 1197.25,325.659 1198.25,327.326 1198.5,329.5C 1196.75,328.341 1195.75,326.674 1195.5,324.5 Z"/></g>
<g><path style="opacity:1" fill="#7b7b7b" d="M 1200.5,333.5 C 1203.26,336.678 1205.26,340.345 1206.5,344.5C 1205.5,344.5 1204.5,344.5 1203.5,344.5C 1203.38,340.588 1202.38,336.921 1200.5,333.5 Z"/></g>
<g><path style="opacity:1" fill="#888888" d="M 1215.5,362.5 C 1217.96,365.751 1219.62,369.418 1220.5,373.5C 1217.5,370.503 1215.84,366.836 1215.5,362.5 Z"/></g>
<g><path style="opacity:0.02" fill="#bababa" d="M 1221.5,375.5 C 1223.29,377.426 1224.29,379.759 1224.5,382.5C 1222.71,380.574 1221.71,378.241 1221.5,375.5 Z"/></g>
<g><path style="opacity:0.02" fill="#bdbdbd" d="M 1228.5,391.5 C 1229.93,392.78 1230.6,394.447 1230.5,396.5C 1229.07,395.22 1228.4,393.553 1228.5,391.5 Z"/></g>
<g><path style="opacity:1" fill="#222222" d="M 602.5,404.5 C 606.94,406.538 611.607,408.204 616.5,409.5C 626.321,412.545 635.654,416.545 644.5,421.5C 644.832,478.336 644.499,535.002 643.5,591.5C 619.604,571.37 592.937,555.537 563.5,544C 541.466,535.312 519.466,526.646 497.5,518C 485.395,512.781 473.728,506.781 462.5,500C 451.575,492.41 442.742,482.91 436,471.5C 427.208,446.776 433.041,426.276 453.5,410C 474.048,397.652 496.381,391.819 520.5,392.5C 548.368,393.052 575.701,397.052 602.5,404.5 Z"/></g>
<g><path style="opacity:1" fill="#898989" d="M 1230.5,396.5 C 1232.07,398.509 1233.07,400.843 1233.5,403.5C 1231.17,401.824 1230.17,399.491 1230.5,396.5 Z"/></g>
<g><path style="opacity:1" fill="#9a9a9a" d="M 602.5,404.5 C 607.703,405.009 612.37,406.676 616.5,409.5C 611.607,408.204 606.94,406.538 602.5,404.5 Z"/></g>
<g><path style="opacity:1" fill="#939393" d="M 1233.5,403.5 C 1234.54,404.93 1235.2,406.597 1235.5,408.5C 1233.79,407.365 1233.12,405.698 1233.5,403.5 Z"/></g>
<g><path style="opacity:1" fill="#898989" d="M 1235.5,408.5 C 1238.01,413.547 1240.01,418.88 1241.5,424.5C 1238.14,419.77 1236.14,414.437 1235.5,408.5 Z"/></g>
<g><path style="opacity:1" fill="#4d4d4d" d="M 644.5,421.5 C 644.833,421.5 645.167,421.5 645.5,421.5C 646.163,478.843 645.496,535.843 643.5,592.5C 643.5,592.167 643.5,591.833 643.5,591.5C 644.499,535.002 644.832,478.336 644.5,421.5 Z"/></g>
<g><path style="opacity:1" fill="#e5e5e5" d="M 645.5,421.5 C 646.665,478.999 646.832,536.665 646,594.5C 645.005,593.934 644.172,593.267 643.5,592.5C 645.496,535.843 646.163,478.843 645.5,421.5 Z"/></g>
<g><path style="opacity:0.012" fill="#a7a7a7" d="M 1242.5,425.5 C 1243.04,427.117 1243.37,428.784 1243.5,430.5C 1241.66,429.005 1241.32,427.338 1242.5,425.5 Z"/></g>
<g><path style="opacity:0.949" fill="#9b9b9b" d="M 1243.5,430.5 C 1245.07,433.215 1246.07,436.215 1246.5,439.5C 1244.13,437.044 1243.13,434.044 1243.5,430.5 Z"/></g>
<g><path style="opacity:0.453" fill="#999999" d="M 1246.5,439.5 C 1248.28,442.505 1249.28,445.838 1249.5,449.5C 1247.4,446.592 1246.4,443.258 1246.5,439.5 Z"/></g>
<g><path style="opacity:1" fill="#848484" d="M 1249.5,449.5 C 1250.74,451.214 1251.41,453.214 1251.5,455.5C 1249.72,454.01 1249.05,452.01 1249.5,449.5 Z"/></g>
<g><path style="opacity:1" fill="#9c9c9c" d="M 1251.5,455.5 C 1252.87,458.619 1253.87,461.952 1254.5,465.5C 1252.32,462.619 1251.32,459.286 1251.5,455.5 Z"/></g>
<g><path style="opacity:1" fill="#8b8b8b" d="M 1254.5,466.5 C 1256.26,469.854 1257.26,473.521 1257.5,477.5C 1255.52,474.201 1254.52,470.534 1254.5,466.5 Z"/></g>
<g><path style="opacity:1" fill="#929292" d="M 161.5,495.5 C 160.943,500.165 159.61,504.498 157.5,508.5C 158.057,503.835 159.39,499.502 161.5,495.5 Z"/></g>
<g><path style="opacity:1" fill="#6c6c6c" d="M 1261.5,493.5 C 1262.91,496.219 1263.58,499.219 1263.5,502.5C 1262.88,502.389 1262.38,502.056 1262,501.5C 1261.5,498.854 1261.34,496.187 1261.5,493.5 Z"/></g>
<g><path style="opacity:1" fill="#777777" d="M 1263.5,502.5 C 1266.45,512.529 1268.45,522.862 1269.5,533.5C 1266.5,523.479 1264.5,513.145 1263.5,502.5 Z"/></g>
<g><path style="opacity:1" fill="#7d7d7d" d="M 157.5,508.5 C 157.074,512.427 156.074,516.093 154.5,519.5C 154.517,515.466 155.517,511.799 157.5,508.5 Z"/></g>
<g><path style="opacity:1" fill="#222222" d="M 408.5,777.5 C 403.767,775.256 398.767,773.589 393.5,772.5C 352.826,756.327 323.326,728.327 305,688.5C 293.57,663.382 287.403,637.048 286.5,609.5C 286.082,589.779 286.749,570.112 288.5,550.5C 290.515,532.774 295.182,515.774 302.5,499.5C 312.92,535.152 332.92,564.319 362.5,587C 381.35,601.268 401.684,613.268 423.5,623C 443.411,630.86 463.411,638.526 483.5,646C 504.164,653.495 523.164,663.828 540.5,677C 561.302,696.045 566.802,718.878 557,745.5C 550.414,760.42 539.581,770.92 524.5,777C 502.977,785.646 480.644,788.98 457.5,787C 440.766,785.419 424.432,782.253 408.5,777.5 Z"/></g>
<g><path style="opacity:1" fill="#777777" d="M 1270.5,540.5 C 1271.9,544.591 1272.56,548.924 1272.5,553.5C 1271.73,552.737 1271.23,551.737 1271,550.5C 1270.5,547.183 1270.33,543.85 1270.5,540.5 Z"/></g>
<g><path style="opacity:0.851" fill="#8f8f8f" d="M 1273.5,554.5 C 1274.31,562.821 1274.98,571.154 1275.5,579.5C 1274.04,572.877 1273.04,566.044 1272.5,559C 1272.51,557.293 1272.84,555.793 1273.5,554.5 Z"/></g>
<g><path style="opacity:1" fill="#545454" d="M 288.5,550.5 C 286.749,570.112 286.082,589.779 286.5,609.5C 285.339,595.006 285.172,580.339 286,565.5C 286.296,560.272 287.129,555.272 288.5,550.5 Z"/></g>
<g><path style="opacity:0.557" fill="#b5b4b5" d="M 1278.5,612.5 C 1278.5,630.5 1278.5,648.5 1278.5,666.5C 1277.83,672.5 1277.17,678.5 1276.5,684.5C 1276.93,660.333 1277.6,636.333 1278.5,612.5 Z"/></g>
<g><path style="opacity:1" fill="#868686" d="M 156.5,667.5 C 157.924,669.515 158.59,671.848 158.5,674.5C 157.076,672.485 156.41,670.152 156.5,667.5 Z"/></g>
<g><path style="opacity:0.702" fill="#8e8e8e" d="M 1272.5,724.5 C 1272.26,728.842 1271.93,733.176 1271.5,737.5C 1270.26,733.088 1270.59,728.754 1272.5,724.5 Z"/></g>
<g><path style="opacity:0.62" fill="#8b8b8b" d="M 1270.5,739.5 C 1269.61,746.518 1268.61,753.518 1267.5,760.5C 1266.86,753.352 1267.86,746.352 1270.5,739.5 Z"/></g>
<g><path style="opacity:1" fill="#6b6b6b" d="M 393.5,772.5 C 398.767,773.589 403.767,775.256 408.5,777.5C 403.085,776.806 398.085,775.14 393.5,772.5 Z"/></g>
<g><path style="opacity:0.635" fill="#767676" d="M 1264.5,771.5 C 1264.12,776.092 1263.12,780.425 1261.5,784.5C 1261.12,779.727 1262.12,775.393 1264.5,771.5 Z"/></g>
<g><path style="opacity:1" fill="#585858" d="M 1261.5,784.5 C 1260.77,790.094 1259.43,795.427 1257.5,800.5C 1257.44,794.71 1258.77,789.376 1261.5,784.5 Z"/></g>
<g><path style="opacity:1" fill="#3e3e3e" d="M 1257.5,801.5 C 1254.14,816.228 1249.81,830.561 1244.5,844.5C 1242.84,842.794 1242.18,840.961 1242.5,839C 1243.25,836.825 1244.09,834.659 1245,832.5C 1246.01,831.663 1247.18,831.33 1248.5,831.5C 1247.21,826.919 1247.21,822.586 1248.5,818.5C 1251.37,813.568 1253.03,808.235 1253.5,802.5C 1254.96,802.567 1256.29,802.234 1257.5,801.5 Z"/></g>
<g><path style="opacity:1" fill="#595959" d="M 643.5,831.5 C 645.344,832.204 645.844,833.537 645,835.5C 642.628,834.683 642.128,833.35 643.5,831.5 Z"/></g>
<g><path style="opacity:0.62" fill="#808080" d="M 1244.5,844.5 C 1243.93,848.537 1242.6,852.203 1240.5,855.5C 1241.07,851.463 1242.4,847.797 1244.5,844.5 Z"/></g>
<g><path style="opacity:1" fill="#4d4d4d" d="M 643.5,845.5 C 643.5,844.833 643.833,844.5 644.5,844.5C 645.499,894.331 645.832,944.331 645.5,994.5C 644.501,945.67 644.168,896.67 644.5,847.5C 644.672,846.508 644.338,845.842 643.5,845.5 Z"/></g>
<g><path style="opacity:1" fill="#898989" d="M 1128.5,875.5 C 1129.04,875.56 1129.38,875.893 1129.5,876.5C 1077.67,877.831 1026,877.831 974.5,876.5C 1026,876.832 1077.34,876.499 1128.5,875.5 Z"/></g>
<g><path style="opacity:1" fill="#7e7d7d" d="M 778.5,681.5 C 778.5,748.833 778.5,816.167 778.5,883.5C 857.84,882.836 936.84,883.503 1015.5,885.5C 1015.83,922.004 1015.5,958.337 1014.5,994.5C 1014.83,957.663 1014.5,920.996 1013.5,884.5C 934.833,884.5 856.167,884.5 777.5,884.5C 777.167,816.665 777.501,748.998 778.5,681.5 Z"/></g>
<g><path style="opacity:1" fill="#1b1b1b" d="M 644.5,847.5 C 644.168,896.67 644.501,945.67 645.5,994.5C 768.5,995.833 891.5,995.833 1014.5,994.5C 1015.5,958.337 1015.83,922.004 1015.5,885.5C 1016.59,885.62 1017.25,886.287 1017.5,887.5C 1017.82,923.384 1017.48,959.384 1016.5,995.5C 1017.17,995.833 1017.83,996.167 1018.5,996.5C 895.461,997.168 772.461,997.835 649.5,998.5C 647.833,997.833 646.167,997.167 644.5,996.5C 644.167,997.167 643.833,997.833 643.5,998.5C 642.855,950.835 642.188,903.001 641.5,855C 643.569,854.676 643.902,853.842 642.5,852.5C 643.028,850.664 643.694,848.997 644.5,847.5 Z"/></g>
<g><path style="opacity:1" fill="#acacac" d="M 506.5,892.5 C 498.134,894.913 489.467,895.913 480.5,895.5C 489.026,894.505 497.693,893.505 506.5,892.5 Z"/></g>
<g><path style="opacity:1" fill="#929292" d="M 424.5,893.5 C 429.414,893.362 434.081,894.028 438.5,895.5C 433.586,895.638 428.919,894.972 424.5,893.5 Z"/></g>
<g><path style="opacity:1" fill="#3c3c3c" d="M 1230.5,882.5 C 1226.87,891.744 1222.87,900.744 1218.5,909.5C 1218.52,907.94 1218.85,906.44 1219.5,905C 1219.11,903.989 1218.44,903.489 1217.5,903.5C 1218.78,899.406 1221.11,896.239 1224.5,894C 1222.84,893.275 1222.34,892.108 1223,890.5C 1225.39,888.381 1226.73,885.715 1227,882.5C 1227.99,881.829 1229.15,881.829 1230.5,882.5 Z"/></g>
<g><path style="opacity:1" fill="#cccccc" d="M 644.5,844.5 C 644.56,843.957 644.893,843.624 645.5,843.5C 646.5,893.496 646.833,943.496 646.5,993.5C 768.833,993.5 891.167,993.5 1013.5,993.5C 1013.5,957.167 1013.5,920.833 1013.5,884.5C 1014.5,920.996 1014.83,957.663 1014.5,994.5C 891.5,995.833 768.5,995.833 645.5,994.5C 645.832,944.331 645.499,894.331 644.5,844.5 Z"/></g>
<g><path style="opacity:1" fill="#323232" d="M 1163.5,1004.5 C 1156.47,1015.89 1148.47,1026.56 1139.5,1036.5C 1139.2,1035.85 1138.86,1035.18 1138.5,1034.5C 1140.97,1031.53 1142.8,1028.19 1144,1024.5C 1145.58,1023.14 1147.42,1022.47 1149.5,1022.5C 1150.2,1019.43 1151.2,1016.43 1152.5,1013.5C 1152.17,1012.83 1151.83,1012.17 1151.5,1011.5C 1152.86,1009.97 1154.03,1008.3 1155,1006.5C 1155.2,1008.29 1156.03,1009.62 1157.5,1010.5C 1158.73,1009.35 1158.73,1008.18 1157.5,1007C 1158.85,1006.23 1159.68,1005.06 1160,1003.5C 1160.95,1005.37 1162.12,1005.71 1163.5,1004.5 Z"/></g>
</svg>
